<svg width="146" height="60" viewBox="0 0 146 60" fill="none" xmlns="http://www.w3.org/2000/svg">
<path d="M46.1442 4.81561e-05C46.7435 4.81561e-05 47.4676 0.249738 48.3165 0.749165C49.1655 1.24854 49.59 1.77292 49.59 2.32223C49.59 2.82166 49.5026 3.2961 49.3278 3.74554C49.153 4.19498 48.816 4.86921 48.3165 5.76809C46.4688 8.91428 44.671 13.0343 42.9231 18.1281C42.174 20.3754 41.3874 23.0347 40.5634 26.106C39.7394 29.1773 39.1277 31.5868 38.7282 33.3347L48.3914 32.8104C49.7398 32.7604 50.8759 32.5856 51.7999 32.286C52.7237 31.9864 53.3105 31.8365 53.5602 31.8365C54.1095 31.8365 54.5715 32.1112 54.946 32.6606C55.3206 33.2099 55.5079 33.7842 55.5079 34.3835C55.5079 35.1325 54.9835 35.607 53.9348 35.8067C53.8349 35.8067 53.3854 35.8692 52.5864 35.994C51.7874 36.1189 50.6638 36.1813 49.2155 36.1813C48.2666 36.1813 46.2441 36.2812 43.1478 36.4809C42.0991 36.5309 41.0878 36.5808 40.114 36.6307C39.1401 36.6807 38.2787 36.7057 37.5296 36.7057C37.3798 36.8555 37.205 37.0427 37.0052 37.2675C36.8055 37.4922 36.5308 37.6795 36.1812 37.8293C35.7317 37.9791 35.2573 38.104 34.7579 38.2039C34.2585 38.3038 33.8839 38.3537 33.6343 38.3537C33.2847 38.3537 33.01 38.2538 32.8103 38.054C32.6105 37.8543 32.3858 37.5547 32.1361 37.1552C19.6512 37.4548 12.5098 37.6046 10.7119 37.6046C9.11392 37.6046 7.64068 37.5796 6.29231 37.5297C4.94399 37.4797 4.04505 37.4547 3.59557 37.4547C3.6455 37.7544 3.77037 38.6533 3.97012 40.1515C4.16988 41.6497 4.36963 42.8483 4.56938 43.7472C5.3185 46.9433 6.03015 49.3778 6.70433 51.0508C7.37852 52.7238 8.14011 54.3343 8.98905 55.8824C9.28873 56.3319 9.5259 56.7689 9.7007 57.1934C9.87551 57.6179 9.96291 58.0298 9.96291 58.4294C9.96291 58.8289 9.77563 59.1785 9.40108 59.4781C9.02652 59.7778 8.5646 59.9276 8.01524 59.9276C7.06642 59.9276 5.96774 58.3295 4.71919 55.1334C3.47074 51.9372 2.44694 48.4664 1.64794 44.721C1.1985 42.6235 0.811466 39.9517 0.486846 36.7057C0.162225 33.4596 -6.10352e-05 30.4382 -6.10352e-05 27.6416C-6.10352e-05 22.8474 0.524311 18.7649 1.57306 15.3939C2.62175 12.023 4.09499 9.47607 5.99268 7.75314C7.89037 6.03026 10.0627 5.16879 12.5098 5.16879C15.656 5.16879 18.3527 6.06767 20.6 7.86553C22.8473 9.66335 24.795 12.0479 26.443 15.0194C28.091 17.9907 29.9637 22.0234 32.0612 27.1172C32.6604 28.4156 33.2098 29.7016 33.7091 30.9751C34.2086 32.2485 34.5581 33.11 34.7579 33.5594C35.0575 33.5594 35.2823 33.5344 35.4321 33.4845C36.6306 28.0911 38.0039 22.7725 39.5521 17.5288L40.0015 15.9557C41.6495 10.5123 42.9355 6.49212 43.8594 3.8953C44.7833 1.29843 45.5449 4.81561e-05 46.1442 4.81561e-05ZM12.5098 8.91423C10.8618 8.91423 9.33871 9.6384 7.9404 11.0866C6.54209 12.5348 5.40595 14.7197 4.53206 17.6412C3.65807 20.5627 3.22115 24.0959 3.22115 28.2409C3.22115 31.3371 3.27109 33.2847 3.37096 34.0838C3.72053 34.1337 4.54453 34.1962 5.84296 34.271C7.1414 34.346 8.43983 34.3834 9.73827 34.3834L21.7238 34.0838L31.0125 33.7841C30.9626 33.3347 30.7254 32.4482 30.3009 31.1249C29.8764 29.8015 29.4644 28.6903 29.0649 27.7914C26.5179 21.4491 23.9585 16.7173 21.3867 13.5961C18.8148 10.4749 15.8558 8.91423 12.5098 8.91423Z" fill="white"/>
<path d="M62.6029 37.1975C62.091 37.1975 61.6915 37.0477 61.3919 36.7356C61.1047 36.4359 60.9549 36.0114 60.9549 35.4745C60.9549 34.4133 61.292 33.4645 61.9787 32.628C62.6654 31.779 63.4269 31.3545 64.2509 31.3545C64.7878 31.3545 65.1998 31.5044 65.4744 31.7915C65.7616 32.0911 65.899 32.5156 65.899 33.0774C65.899 34.0887 65.5494 35.025 64.8378 35.899C64.1261 36.7605 63.3895 37.1974 62.6029 37.1974L62.6029 37.1975Z" fill="#2B2A29"/>
<path d="M16.8723 50.7383L16.7561 52.3359C16.0961 52.495 15.448 52.5733 14.8071 52.5733C13.2166 52.5733 12.006 52.1341 11.1728 51.2558C10.3419 50.3775 9.92651 49.3092 9.92651 48.0535C9.92651 46.7503 10.3681 45.6156 11.2511 44.6518C12.1342 43.6881 13.3448 43.2062 14.8854 43.2062C15.4505 43.2062 15.9845 43.2703 16.4901 43.4008L16.2481 45.0079C15.6997 44.8299 15.1775 44.742 14.6766 44.742C13.7342 44.742 13.0339 45.0411 12.5757 45.6369C12.1152 46.2328 11.8873 46.9568 11.8873 47.809C11.8873 48.6802 12.1603 49.4374 12.7039 50.076C13.2499 50.7169 14.0119 51.0374 14.9947 51.0374C15.5715 51.0374 16.1958 50.9376 16.8723 50.7383V50.7383ZM29.7314 47.6903C29.7314 49.1146 29.2969 50.2944 28.4233 51.2321C27.5521 52.1673 26.4744 52.635 25.1902 52.635C23.9653 52.635 22.9422 52.2053 22.1161 51.346C21.29 50.4866 20.8793 49.3923 20.8793 48.0678C20.8793 46.6435 21.3138 45.4637 22.1849 44.526C23.0585 43.5907 24.1362 43.123 25.4205 43.123C26.643 43.123 27.6685 43.5504 28.4946 44.4097C29.3183 45.2666 29.7314 46.3609 29.7314 47.6903ZM27.8132 47.8921C27.8132 46.9235 27.564 46.1378 27.0679 45.5349C26.5717 44.9319 25.9593 44.6304 25.2329 44.6304C24.554 44.6304 23.9795 44.9342 23.5071 45.542C23.0347 46.1497 22.7973 46.9164 22.7973 47.8446C22.7973 48.8084 23.0466 49.5941 23.5451 50.1994C24.0436 50.8024 24.6537 51.1062 25.3777 51.1062C26.0543 51.1062 26.6287 50.8024 27.1035 50.1923C27.5759 49.5822 27.8132 48.8155 27.8132 47.8921ZM41.8188 52.3857H40.1026C40.1026 52.1958 39.464 51.1917 38.1893 49.3734C36.8552 47.46 36.0932 46.1497 35.9081 45.4447H35.7965C35.9128 46.4607 35.9721 47.3794 35.9721 48.1983C35.9721 49.3449 36.003 50.7407 36.0695 52.3857H34.358C34.4268 50.9472 34.4624 49.3686 34.4624 47.65C34.4624 45.9574 34.4268 44.5165 34.358 43.3296H36.4232C36.4232 43.5765 36.9953 44.5568 38.1418 46.2732C39.3596 48.0939 40.0599 49.3306 40.2403 49.9787H40.3447C40.2331 48.946 40.1785 48.0179 40.1785 47.1965C40.1785 45.9408 40.1453 44.6518 40.0812 43.3296H41.8188C41.7547 44.4809 41.7215 45.9194 41.7215 47.65C41.7215 49.3923 41.7547 50.9709 41.8188 52.3857V52.3857ZM53.2464 43.3296L53.1966 44.8251C52.2708 44.7563 51.3972 44.7207 50.5759 44.7207C50.5664 45.599 50.5616 46.5746 50.5616 47.65C50.5616 49.3188 50.5877 50.8974 50.6376 52.3857H48.691C48.7504 50.9116 48.7812 49.333 48.7812 47.65C48.7812 46.5936 48.7718 45.6156 48.7528 44.7207C48.1 44.7207 47.2027 44.7587 46.0632 44.8323L46.1178 43.3296H53.2464L53.2464 43.3296ZM64.8189 52.3857H62.7607C62.2219 50.7454 61.8088 49.7318 61.5216 49.3473C61.2344 48.9627 60.7714 48.7704 60.1305 48.7704C59.8623 48.7704 59.606 48.7728 59.3591 48.7752C59.3591 49.9668 59.3805 51.1704 59.4208 52.3858H57.4885C57.5478 50.9852 57.5787 49.4067 57.5787 47.65C57.5787 45.9622 57.5478 44.5213 57.4885 43.3296H58.692C58.8297 43.3296 59.1216 43.3249 59.5632 43.3106C60.0071 43.2964 60.4154 43.2892 60.7928 43.2892C62.9198 43.2892 63.9833 44.018 63.9833 45.4732C63.9833 46.6268 63.3756 47.4316 62.1625 47.885V47.9894C62.6302 48.12 63.0409 48.4855 63.3922 49.0861C63.7459 49.6867 64.2207 50.7858 64.8189 52.3857V52.3857ZM62.21 45.9883C62.21 45.0648 61.6165 44.6043 60.4297 44.6043C59.9953 44.6043 59.6083 44.6352 59.276 44.7017C59.3259 45.4186 59.352 46.3562 59.352 47.5099C59.606 47.5194 59.822 47.5241 59.9976 47.5241C61.4741 47.5241 62.21 47.0114 62.21 45.9883ZM76.9539 52.3857H74.7296C74.7296 52.0795 74.5183 51.213 74.0958 49.7841H70.884C70.4472 51.1894 70.2288 52.0558 70.2288 52.3857H68.1351C68.1351 52.2053 68.6763 50.7217 69.7588 47.9349C70.8412 45.148 71.3825 43.6145 71.3825 43.3296H74.0127C74.0127 43.5955 74.5017 45.1076 75.482 47.8683C76.4648 50.6291 76.9538 52.1341 76.9538 52.3857H76.9539ZM73.7421 48.4571C72.9492 46.0642 72.5528 44.7705 72.5528 44.5759H72.4412C72.4412 44.7563 72.0305 46.05 71.2092 48.4571H73.7421H73.7421ZM91.5719 52.3857H89.5494C89.5494 51.5977 89.4995 50.2683 89.4022 48.3977C89.3049 46.5271 89.255 45.3592 89.2503 44.8963H89.1459C89.0984 45.1741 88.9749 45.6892 88.7755 46.4393C88.5785 47.1919 88.2034 48.298 87.6527 49.7603C87.1043 51.2226 86.829 52.0985 86.829 52.3857H85.2931C85.2931 52.089 85.0296 51.206 84.5027 49.7366C83.9757 48.2672 83.6315 47.2369 83.47 46.6482C83.3086 46.0595 83.178 45.4755 83.0807 44.8963H82.9762C82.9715 45.4756 82.9146 46.7171 82.8053 48.6232C82.6962 50.5294 82.6439 51.7828 82.6439 52.3858H80.8066C80.8066 52.2457 80.9751 50.8523 81.3097 48.2055C81.6468 45.5586 81.8154 43.9326 81.8154 43.3296H84.5074C84.5074 43.8495 84.7899 44.9961 85.3595 46.767C85.9269 48.5378 86.2094 49.6701 86.2094 50.1663H86.3138C86.3138 49.6654 86.639 48.5307 87.2847 46.7598C87.9328 44.989 88.2557 43.8448 88.2557 43.3296H90.9262C90.9262 44.291 91.033 46.0026 91.249 48.4666C91.465 50.9306 91.5719 52.2362 91.5719 52.3858L91.5719 52.3857ZM102.487 50.8547L102.43 52.3857H96.5119C96.5712 50.9852 96.6021 49.4066 96.6021 47.65C96.6021 45.9622 96.5712 44.5213 96.5119 43.3296H102.159L102.083 44.8536C100.692 44.78 99.4293 44.742 98.2993 44.742C98.3445 45.3877 98.3682 46.1473 98.3682 47.0233C99.3368 47.0233 100.374 46.9972 101.478 46.9473V48.4C100.393 48.355 99.3557 48.3312 98.3682 48.3312C98.3682 49.2712 98.3872 50.1543 98.4252 50.9733C99.6951 50.9733 101.048 50.9353 102.487 50.8546L102.487 50.8547ZM113.022 49.917C113.022 51.7306 111.719 52.635 109.115 52.635C108.229 52.635 107.405 52.5305 106.646 52.3169L106.985 50.7644C107.738 51.0255 108.445 51.1537 109.115 51.1537C109.855 51.1537 110.389 51.0825 110.712 50.9401C111.037 50.7952 111.201 50.5532 111.201 50.2161C111.201 49.8624 111.047 49.5657 110.741 49.3259C110.477 49.1122 109.941 48.8345 109.134 48.4903C108.402 48.1769 107.856 47.8327 107.5 47.4624C107.052 46.9948 106.826 46.4155 106.826 45.7295C106.826 44.9319 107.121 44.3099 107.712 43.8589C108.303 43.4102 109.153 43.1847 110.261 43.1847C111.17 43.1847 111.932 43.2607 112.55 43.415L112.291 44.958C111.666 44.7301 110.99 44.6185 110.261 44.6185C109.167 44.6185 108.621 44.9105 108.621 45.4945C108.621 45.8054 108.747 46.0571 109.003 46.2518C109.226 46.4179 109.71 46.6529 110.456 46.9544C111.249 47.2748 111.842 47.6262 112.236 48.0107C112.761 48.5259 113.022 49.1621 113.022 49.9169L113.022 49.917ZM123.984 43.3296L123.934 44.8251C123.008 44.7563 122.135 44.7207 121.314 44.7207C121.304 45.599 121.299 46.5746 121.299 47.65C121.299 49.3188 121.325 50.8974 121.375 52.3857H119.429C119.488 50.9116 119.519 49.333 119.519 47.65C119.519 46.5936 119.509 45.6156 119.49 44.7207C118.838 44.7207 117.94 44.7587 116.801 44.8323L116.855 43.3296H123.984L123.984 43.3296ZM135.557 52.3857H133.498C132.96 50.7454 132.547 49.7318 132.259 49.3473C131.972 48.9627 131.509 48.7704 130.868 48.7704C130.6 48.7704 130.344 48.7728 130.097 48.7752C130.097 49.9668 130.118 51.1704 130.159 52.3858H128.226C128.286 50.9852 128.316 49.4067 128.316 47.65C128.316 45.9622 128.286 44.5213 128.226 43.3296H129.43C129.567 43.3296 129.859 43.3249 130.301 43.3106C130.745 43.2964 131.153 43.2892 131.531 43.2892C133.657 43.2892 134.721 44.018 134.721 45.4732C134.721 46.6268 134.113 47.4316 132.9 47.885V47.9894C133.368 48.12 133.779 48.4855 134.13 49.0861C134.484 49.6867 134.958 50.7858 135.557 52.3857V52.3857ZM132.948 45.9883C132.948 45.0648 132.354 44.6043 131.167 44.6043C130.733 44.6043 130.346 44.6352 130.014 44.7017C130.064 45.4186 130.09 46.3562 130.09 47.5099C130.344 47.5194 130.56 47.5241 130.735 47.5241C132.212 47.5241 132.948 47.0114 132.948 45.9883V45.9883ZM145.773 50.8547L145.717 52.3857H139.799C139.858 50.9852 139.889 49.4066 139.889 47.65C139.889 45.9622 139.858 44.5213 139.799 43.3296H145.446L145.37 44.8536C143.979 44.78 142.716 44.742 141.586 44.742C141.631 45.3877 141.655 46.1473 141.655 47.0233C142.623 47.0233 143.661 46.9972 144.765 46.9473V48.4C143.68 48.355 142.642 48.3312 141.655 48.3312C141.655 49.2712 141.674 50.1543 141.712 50.9733C142.982 50.9733 144.335 50.9353 145.774 50.8546L145.773 50.8547Z" fill="white"/>
</svg>
